<svg width="21" height="21" viewBox="0 0 21 21" fill="none" xmlns="http://www.w3.org/2000/svg">
    <g clip-path="url(#clip0)">
        <path d="M10.3505 10.1158C11.7403 10.1158 12.9437 9.61736 13.9269 8.63395C14.9102 7.6507 15.4086 6.44762 15.4086 5.05774C15.4086 3.66833 14.9102 2.4651 13.9268 1.48153C12.9433 0.498436 11.7401 0 10.3505 0C8.96066 0 7.75758 0.498436 6.77433 1.48169C5.79108 2.46494 5.29248 3.66817 5.29248 5.05774C5.29248 6.44762 5.79108 7.65086 6.77449 8.63411C7.7579 9.6172 8.96114 10.1158 10.3505 10.1158Z" fill="#1B4670"/>
        <path d="M19.2006 16.148C19.1722 15.7388 19.1149 15.2924 19.0304 14.8211C18.9452 14.3462 18.8355 13.8972 18.7041 13.4869C18.5684 13.0628 18.3838 12.644 18.1557 12.2427C17.9189 11.8261 17.6407 11.4634 17.3286 11.1649C17.0023 10.8526 16.6027 10.6016 16.1406 10.4184C15.6801 10.2363 15.1699 10.144 14.624 10.144C14.4096 10.144 14.2023 10.232 13.8019 10.4926C13.5555 10.6533 13.2673 10.8392 12.9456 11.0447C12.6705 11.22 12.2978 11.3842 11.8375 11.5329C11.3884 11.6782 10.9324 11.7519 10.4824 11.7519C10.0323 11.7519 9.57651 11.6782 9.12694 11.5329C8.66711 11.3844 8.29445 11.2202 8.01968 11.0449C7.701 10.8413 7.41261 10.6554 7.16251 10.4925C6.76261 10.2318 6.55513 10.1438 6.34076 10.1438C5.79474 10.1438 5.28461 10.2363 4.8243 10.4186C4.36256 10.6014 3.96281 10.8525 3.63613 11.1651C3.32419 11.4637 3.04589 11.8263 2.80941 12.2427C2.58142 12.644 2.39685 13.0627 2.26099 13.4871C2.12977 13.8974 2.02002 14.3462 1.93478 14.8211C1.85035 15.2918 1.79299 15.7383 1.76463 16.1485C1.73676 16.5503 1.72266 16.9673 1.72266 17.3885C1.72266 18.4847 2.07113 19.3722 2.7583 20.0267C3.43698 20.6725 4.335 21.0002 5.42704 21.0002H15.5387C16.6307 21.0002 17.5284 20.6727 18.2073 20.0267C18.8946 19.3727 19.2431 18.4851 19.2431 17.3884C19.2429 16.9652 19.2286 16.5479 19.2006 16.148Z" fill="#1B4670"/>
    </g>
    <defs>
        <clipPath id="clip0">
            <rect width="21" height="21.0001" fill="white"/>
        </clipPath>
    </defs>
</svg>
