<svg width="23" height="23" viewBox="0 0 23 23" fill="none" xmlns="http://www.w3.org/2000/svg">
    <path d="M21.2664 9.01127L19.6533 3.93499C19.2855 2.77731 18.1786 2 16.899 2H6.10095C4.82138 2 3.71447 2.77731 3.34667 3.93499L1.73361 9.01127C0.71506 9.42917 0 10.3861 0 11.5V16.9286C0 17.678 0.643646 18.2857 1.4375 18.2857H1.43759L1.4375 19.6428C1.4375 20.3923 2.08106 21 2.875 21H4.31259C5.10644 21 5.75009 20.3923 5.75009 19.6429L5.74947 18.2857H17.25L17.2499 19.6428C17.2499 20.3923 17.8935 21 18.6874 21H20.125C20.9189 21 21.5625 20.3923 21.5625 19.6429V18.2858L21.562 18.2857H21.5625C22.3564 18.2857 23 17.678 23 16.9286V11.5C23 10.3861 22.2849 9.42916 21.2664 9.01127L21.2664 9.01127ZM6.10091 4.71429H16.899L18.1928 8.78571H4.80712L6.1009 4.71429H6.10091ZM5.74996 14.8929C4.95601 14.8929 4.31246 14.2852 4.31246 13.5357C4.31246 12.7862 4.95601 12.1786 5.74996 12.1786C6.5439 12.1786 7.18745 12.7862 7.18745 13.5357C7.18745 14.2852 6.5439 14.8929 5.74996 14.8929ZM17.25 14.8929C16.456 14.8929 15.8125 14.2852 15.8125 13.5357C15.8125 12.7862 16.456 12.1786 17.25 12.1786C18.0439 12.1786 18.6875 12.7862 18.6875 13.5357C18.6875 14.2852 18.0439 14.8929 17.25 14.8929Z" fill="#1B4670"/>
</svg>
