<svg width="411" height="273" viewBox="0 0 411 273" fill="none" xmlns="http://www.w3.org/2000/svg">
    <g filter="url(#filter0_dd)">
        <path fill-rule="evenodd" clip-rule="evenodd" d="M212.5 491C349.19 491 460 387.802 460 260.5C460 133.198 349.19 30 212.5 30C75.8095 30 -35 133.198 -35 260.5C-35 387.802 75.8095 491 212.5 491Z" fill="#E6EEF8"/>
        <path fill-rule="evenodd" clip-rule="evenodd" d="M212.5 491C349.19 491 460 387.802 460 260.5C460 133.198 349.19 30 212.5 30C75.8095 30 -35 133.198 -35 260.5C-35 387.802 75.8095 491 212.5 491Z" fill="url(#paint0_linear)" fill-opacity="0.4" style="mix-blend-mode:soft-light"/>
        <path d="M459 260.5C459 387.184 348.706 490 212.5 490C76.2936 490 -34 387.184 -34 260.5C-34 133.816 76.2936 31 212.5 31C348.706 31 459 133.816 459 260.5Z" stroke="white" stroke-opacity="0.4" stroke-width="2"/>
    </g>
    <defs>
        <filter id="filter0_dd" x="-65" y="0" width="555" height="521" filterUnits="userSpaceOnUse" color-interpolation-filters="sRGB">
            <feFlood flood-opacity="0" result="BackgroundImageFix"/>
            <feColorMatrix in="SourceAlpha" type="matrix" values="0 0 0 0 0 0 0 0 0 0 0 0 0 0 0 0 0 0 127 0"/>
            <feOffset dx="10" dy="10"/>
            <feGaussianBlur stdDeviation="10"/>
            <feColorMatrix type="matrix" values="0 0 0 0 0.6512 0 0 0 0 0.66896 0 0 0 0 0.74 0 0 0 1 0"/>
            <feBlend mode="normal" in2="BackgroundImageFix" result="effect1_dropShadow"/>
            <feColorMatrix in="SourceAlpha" type="matrix" values="0 0 0 0 0 0 0 0 0 0 0 0 0 0 0 0 0 0 127 0"/>
            <feOffset dx="-10" dy="-10"/>
            <feGaussianBlur stdDeviation="10"/>
            <feColorMatrix type="matrix" values="0 0 0 0 0.979167 0 0 0 0 0.983333 0 0 0 0 1 0 0 0 1 0"/>
            <feBlend mode="normal" in2="effect1_dropShadow" result="effect2_dropShadow"/>
            <feBlend mode="normal" in="SourceGraphic" in2="effect2_dropShadow" result="shape"/>
        </filter>
        <linearGradient id="paint0_linear" x1="732.005" y1="260.5" x2="275.224" y2="-278.531" gradientUnits="userSpaceOnUse">
            <stop/>
            <stop offset="1" stop-color="white"/>
        </linearGradient>
    </defs>
</svg>
