<svg width="411" height="351" viewBox="0 0 411 351" fill="none" xmlns="http://www.w3.org/2000/svg">
    <g filter="url(#filter0_dd)">
        <path fill-rule="evenodd" clip-rule="evenodd" d="M205.5 491C342.19 491 453 387.802 453 260.5C453 133.198 342.19 30 205.5 30C68.8095 30 -42 133.198 -42 260.5C-42 387.802 68.8095 491 205.5 491Z" fill="#E6EEF8"/>
        <path fill-rule="evenodd" clip-rule="evenodd" d="M205.5 491C342.19 491 453 387.802 453 260.5C453 133.198 342.19 30 205.5 30C68.8095 30 -42 133.198 -42 260.5C-42 387.802 68.8095 491 205.5 491Z" fill="url(#paint0_linear)" fill-opacity="0.4" style="mix-blend-mode:soft-light"/>
        <path d="M452 260.5C452 387.184 341.706 490 205.5 490C69.2936 490 -41 387.184 -41 260.5C-41 133.816 69.2936 31 205.5 31C341.706 31 452 133.816 452 260.5Z" stroke="white" stroke-opacity="0.4" stroke-width="2"/>
    </g>
    <defs>
        <filter id="filter0_dd" x="-72" y="0" width="555" height="521" filterUnits="userSpaceOnUse" color-interpolation-filters="sRGB">
            <feFlood flood-opacity="0" result="BackgroundImageFix"/>
            <feColorMatrix in="SourceAlpha" type="matrix" values="0 0 0 0 0 0 0 0 0 0 0 0 0 0 0 0 0 0 127 0"/>
            <feOffset dx="10" dy="10"/>
            <feGaussianBlur stdDeviation="10"/>
            <feColorMatrix type="matrix" values="0 0 0 0 0.6512 0 0 0 0 0.66896 0 0 0 0 0.74 0 0 0 1 0"/>
            <feBlend mode="normal" in2="BackgroundImageFix" result="effect1_dropShadow"/>
            <feColorMatrix in="SourceAlpha" type="matrix" values="0 0 0 0 0 0 0 0 0 0 0 0 0 0 0 0 0 0 127 0"/>
            <feOffset dx="-10" dy="-10"/>
            <feGaussianBlur stdDeviation="10"/>
            <feColorMatrix type="matrix" values="0 0 0 0 0.979167 0 0 0 0 0.983333 0 0 0 0 1 0 0 0 1 0"/>
            <feBlend mode="normal" in2="effect1_dropShadow" result="effect2_dropShadow"/>
            <feBlend mode="normal" in="SourceGraphic" in2="effect2_dropShadow" result="shape"/>
        </filter>
        <linearGradient id="paint0_linear" x1="725.005" y1="260.5" x2="268.224" y2="-278.531" gradientUnits="userSpaceOnUse">
            <stop/>
            <stop offset="1" stop-color="white"/>
        </linearGradient>
    </defs>
</svg>
