<svg width="18" height="18" viewBox="0 0 18 18" fill="none" xmlns="http://www.w3.org/2000/svg">
    <path d="M7.58641 9.72012C7.58641 10.2306 7.17265 10.6444 6.66221 10.6444C6.15179 10.6444 5.73803 10.2306 5.73803 9.72012C5.73803 9.20971 6.15179 8.79591 6.66221 8.79591C7.17265 8.79594 7.58641 9.20973 7.58641 9.72012ZM11.3378 8.79594C10.8274 8.79594 10.4136 9.20971 10.4136 9.72018C10.4136 10.2306 10.8274 10.6444 11.3378 10.6444C11.8482 10.6444 12.262 10.2306 12.262 9.72018C12.262 9.20973 11.8482 8.79594 11.3378 8.79594ZM18 9.20497V10.9614C18 11.8432 17.2851 12.5581 16.4033 12.5581H15.2446C14.0966 15.7459 11.1648 17.6713 9 17.6713C6.83518 17.6713 3.90344 15.7459 2.75535 12.5581H1.59671C0.714853 12.5581 0 11.8432 0 10.9614V9.20494C0 8.59815 0.338559 8.07044 0.837059 7.80029C0.853794 5.30662 1.58059 3.35906 3.00038 2.01268C4.40868 0.677206 6.42724 0 9 0C11.5728 0 13.5913 0.677206 14.9996 2.01265C16.4194 3.35903 17.1461 5.30662 17.1629 7.80026C17.6614 8.07044 18 8.59815 18 9.20497ZM14.6206 9.72597C14.6206 9.31512 14.5995 8.92909 14.5685 8.55503C13.8599 7.90671 12.5734 7.41476 10.9499 7.23197C11.163 7.47168 11.3472 7.787 11.4589 8.20206C10.4644 7.41862 8.51235 7.60509 7.03585 5.85191C6.95121 5.754 6.878 5.66044 6.81471 5.57494C6.81397 5.57391 6.81315 5.57312 6.81241 5.57212L6.81259 5.57218C6.54991 5.21694 6.46035 5.00565 6.45535 5.23953C6.41203 7.25462 4.98376 8.82556 3.39776 9.04718C3.38774 9.26879 3.37953 9.49256 3.37953 9.726C3.37953 10.5777 3.51862 11.354 3.75509 12.0536C4.64597 13.1282 6.11721 13.4316 7.41938 13.5121C7.66112 13.1275 8.2035 12.859 8.83515 12.859C9.69153 12.859 10.3857 13.3518 10.3857 13.9597C10.3857 14.5676 9.6915 15.0604 8.83515 15.0604C8.17641 15.0604 7.61506 14.7683 7.39038 14.3571C6.48029 14.3041 5.47982 14.149 4.58815 13.7279C5.84209 15.5762 7.78603 16.5536 9 16.5536C10.9076 16.5536 14.6206 14.1437 14.6206 9.72597ZM16.2016 7.60826C16.1 3.25676 13.6162 0.958059 9 0.958059C4.38379 0.958059 1.90003 3.25676 1.79838 7.60826H2.41271C2.63732 6.14159 3.11206 4.93538 3.83285 4.00791C4.98147 2.53003 6.71994 1.78065 9 1.78065C11.2801 1.78065 13.0185 2.53003 14.1672 4.00791C14.8879 4.93535 15.3627 6.14159 15.5873 7.60826H16.2016Z" fill="#1B4670"/>
</svg>
