<svg width="19" height="19" viewBox="0 0 19 19" fill="none" xmlns="http://www.w3.org/2000/svg">
    <path d="M14.4547 3.24448C14.4547 2.79872 14.2807 2.37909 13.9654 2.0638L12.3911 0.489542C12.0802 0.178601 11.6389 0.000289917 11.1997 0.000289917H11.104V3.34015H14.4547L14.4547 3.24448Z" fill="#1B4670"/>
    <path d="M10.1657 11.4868C10.2722 11.1633 10.4581 10.8622 10.7006 10.6181L14.4695 6.86438V4.45315H10.5581C10.2505 4.45315 10.0196 4.20418 10.0196 3.8965V0H1.66993C0.749093 0 0 0.749093 0 1.66993V17.3302C0 18.251 0.749093 19.0001 1.66993 19.0001H12.7847C13.7056 19.0001 14.4695 18.251 14.4695 17.3302V13.1757L13.8578 13.7726C13.6099 14.0183 13.3197 14.1971 12.9924 14.3064L11.2224 14.8973L10.9528 14.912C10.507 14.912 10.0852 14.6951 9.82323 14.332C9.56339 13.9705 9.49273 13.5019 9.63405 13.0784L10.1657 11.4868ZM2.78322 10.0196H8.33158C8.63925 10.0196 8.88822 10.2685 8.88822 10.5762C8.88822 10.8839 8.63925 11.1329 8.33158 11.1329H2.78322C2.47554 11.1329 2.22657 10.8839 2.22657 10.5762C2.22657 10.2685 2.47554 10.0196 2.78322 10.0196ZM2.22657 8.34965C2.22657 8.04197 2.47554 7.79301 2.78322 7.79301H8.33158C8.63925 7.79301 8.88822 8.04197 8.88822 8.34965C8.88822 8.65732 8.63925 8.90629 8.33158 8.90629H2.78322C2.47554 8.90629 2.22657 8.65732 2.22657 8.34965ZM2.22657 12.8028C2.22657 12.4951 2.47554 12.2462 2.78322 12.2462H8.33158C8.63925 12.2462 8.88822 12.4951 8.88822 12.8028C8.88822 13.1105 8.63925 13.3594 8.33158 13.3594H2.78322C2.47554 13.3594 2.22657 13.1105 2.22657 12.8028ZM10.5581 15.586C10.8658 15.586 11.1148 15.835 11.1148 16.1427C11.1148 16.4503 10.8659 16.6993 10.5581 16.6993H7.21829C6.91061 16.6993 6.66165 16.4503 6.66165 16.1427C6.66165 15.835 6.91061 15.586 7.21829 15.586H10.5581ZM2.78322 6.67972C2.47554 6.67972 2.22657 6.43075 2.22657 6.12308C2.22657 5.8154 2.47554 5.56643 2.78322 5.56643H10.5581C10.8658 5.56643 11.1148 5.8154 11.1148 6.12308C11.1148 6.43075 10.8658 6.67972 10.5581 6.67972H2.78322Z" fill="#1B4670"/>
    <path d="M11.1739 11.9795L10.6896 13.4324C10.617 13.6501 10.8241 13.8571 11.0418 13.7844L12.4938 13.2995L11.1739 11.9795Z" fill="#1B4670"/>
    <path d="M15.4971 7.39648L11.8311 11.0625L13.4121 12.6436C14.2407 11.8148 15.8529 10.2024 17.0779 8.97735L15.4971 7.39648Z" fill="#1B4670"/>
    <path d="M18.6733 5.79992C18.4776 5.60313 18.1895 5.49062 17.8839 5.49062C17.5784 5.49062 17.2903 5.60313 17.0935 5.80048L16.2847 6.60936L17.8655 8.19015C18.3083 7.74728 18.6144 7.44121 18.6744 7.3812C19.1092 6.94572 19.1092 6.23641 18.6733 5.79992Z" fill="#1B4670"/>
    <path d="M18.6738 7.38144C18.6739 7.38144 18.6739 7.3814 18.6739 7.38136C18.6754 7.37986 18.6761 7.37918 18.6773 7.37796C18.6761 7.37922 18.6754 7.3799 18.6738 7.38144Z" fill="#1B4670"/>
    <path d="M18.6768 7.37744C18.6785 7.37575 18.6804 7.37377 18.6815 7.37274C18.6804 7.3738 18.6785 7.37575 18.6768 7.37744Z" fill="#1B4670"/>
    <path d="M18.6821 7.37274C18.6853 7.36952 18.6854 7.36945 18.6821 7.37274V7.37274Z" fill="#1B4670"/>
</svg>
