<svg width="18" height="21" viewBox="0 0 18 21" fill="none" xmlns="http://www.w3.org/2000/svg">
    <path d="M9.66635 8.6489C12.0582 8.37193 13.7585 6.32354 13.4641 4.0737C13.1696 1.82385 10.9919 0.224524 8.60003 0.501493C6.20816 0.778463 4.50787 2.82685 4.80232 5.07669C5.09678 7.32654 7.27448 8.92587 9.66635 8.6489Z" fill="#1B4670"/>
    <path d="M11.4012 18.4567C11.4012 18.7498 11.5239 19.0231 11.7424 19.2263C11.7451 19.2239 11.748 19.2218 11.7507 19.2194C11.753 19.2174 11.7551 19.2152 11.7575 19.2132C11.8177 19.1604 11.8756 19.1058 11.9321 19.0501C11.9486 19.0338 11.9646 19.0173 11.9807 19.0009C12.0284 18.9522 12.0749 18.9027 12.1198 18.852C12.1294 18.8411 12.1394 18.8304 12.149 18.8194C12.2639 18.6866 12.3693 18.5472 12.4643 18.402C12.4665 18.3987 12.4687 18.3955 12.4708 18.3922C12.6658 18.092 12.8174 17.7674 12.9206 17.4254C12.8032 17.3883 12.6815 17.3695 12.5569 17.3695C11.9196 17.3695 11.4012 17.8572 11.4012 18.4567Z" fill="#1B4670"/>
    <path d="M12.6622 14.6438C12.6177 14.5574 12.5698 14.4727 12.5188 14.3899C12.5182 14.389 12.5177 14.3881 12.5171 14.3872C12.4197 14.2294 12.3097 14.0787 12.1892 13.9349C12.1767 13.9199 12.1639 13.9049 12.1511 13.89C12.0928 13.8225 12.0328 13.7561 11.9695 13.6919C11.2026 12.9148 10.1755 12.4974 9.12977 12.4483C9.06007 12.445 8.99027 12.4434 8.92047 12.4434C8.85716 12.4434 8.79383 12.4447 8.73055 12.4474C7.78144 12.4879 6.84238 12.832 6.0931 13.4862C6.04299 13.5299 5.99425 13.5747 5.94677 13.6203C5.93906 13.6277 5.93182 13.6354 5.92418 13.6429C5.88504 13.6811 5.84647 13.7197 5.80917 13.7591C5.79826 13.7707 5.78797 13.7826 5.77723 13.7943C5.74426 13.8299 5.71164 13.8658 5.68019 13.9025C5.66693 13.918 5.6543 13.9339 5.64131 13.9495C5.61398 13.9823 5.58686 14.0153 5.56073 14.0489C5.54445 14.0699 5.52887 14.0912 5.51305 14.1125C5.49213 14.1405 5.47128 14.1686 5.4512 14.1971C5.43126 14.2254 5.41203 14.2542 5.3929 14.2831C5.37889 14.3041 5.36487 14.3252 5.3513 14.3465C5.32781 14.3835 5.30504 14.4209 5.28282 14.4587C5.27535 14.4714 5.26784 14.4841 5.26052 14.4968C5.23416 14.543 5.20862 14.5896 5.18419 14.6368C5.18297 14.6391 5.18176 14.6415 5.18054 14.6438C5.84153 14.5796 7.36758 14.4501 8.92137 14.4501C10.4751 14.4501 12.0011 14.5796 12.6622 14.6438Z" fill="#1B4670"/>
    <path d="M8.92186 19.4097C8.23427 19.4097 7.63079 19.6544 7.41882 19.9989C8.38034 20.3479 9.45575 20.3502 10.4228 19.9992C10.2081 19.6565 9.59758 19.4097 8.92186 19.4097Z" fill="#1B4670"/>
    <path d="M5.2869 17.3695C5.16245 17.3695 5.04059 17.3883 4.92322 17.4254C5.05555 17.8623 5.26926 18.2749 5.55184 18.643C5.5585 18.6516 5.56503 18.6603 5.57178 18.6689C5.61017 18.7181 5.65021 18.7662 5.69106 18.8137C5.70116 18.8254 5.7108 18.8373 5.72105 18.8489C5.77051 18.905 5.82137 18.9601 5.87422 19.0137C5.91507 19.0551 5.95708 19.0949 5.99938 19.1342C6.02443 19.1574 6.05014 19.1804 6.07617 19.2033C6.08472 19.2108 6.0934 19.2182 6.10198 19.2257C6.3201 19.0226 6.4426 18.7494 6.4426 18.4567C6.4426 17.8572 5.9242 17.3695 5.2869 17.3695Z" fill="#1B4670"/>
    <path d="M14.6081 9.21499C14.2876 9.03082 13.9178 8.93881 13.5426 8.93134C12.9909 8.92032 12.4623 9.14087 12.0543 9.49042C11.2523 10.1776 10.6057 10.6537 9.13318 10.6537C7.65376 10.6537 6.98264 10.16 6.21377 9.48751C5.86039 9.17842 5.4124 8.96562 4.93091 8.93571C4.4861 8.90808 4.03772 8.99695 3.65828 9.21499C2.51634 9.87095 0 12.5284 0 18.1333C0 18.3524 0.00360082 18.5638 0.0100276 18.7692C0.0246437 19.236 0.430109 19.6065 0.926614 19.6065L4.34833 19.6065H4.56356C4.72874 19.6065 4.82215 19.4299 4.72314 19.3055C2.91815 17.0383 3.4673 13.6681 6.26817 12.0896C6.82113 11.778 7.43768 11.5687 8.0749 11.4772C9.86356 11.2202 11.5814 11.7923 12.768 12.9948C14.5166 14.7668 14.6141 17.4339 13.1276 19.3055C13.0287 19.43 13.1219 19.6065 13.2872 19.6065H13.5181L16.9197 19.6065C17.4162 19.6065 17.8217 19.236 17.8363 18.7692C17.8428 18.5638 17.8464 18.3524 17.8464 18.1333C17.8464 12.5284 15.75 9.87095 14.6081 9.21499Z" fill="#1B4670"/>
</svg>
