<svg width="15" height="18" viewBox="0 0 15 18" fill="none" xmlns="http://www.w3.org/2000/svg">
<path d="M4.29226 17.377V10.739C3.96126 10.691 3.65423 10.667 3.35623 10.601C2.40386 10.3935 1.55142 9.86578 0.941065 9.10583C0.330709 8.34589 -0.000670838 7.39969 0.00222222 6.42499C-0.00277778 5.07799 0.00222222 3.73097 0.00222222 2.38397V2.16595H2.14822V2.45398C2.14822 3.73398 2.14822 5.01401 2.14822 6.29401C2.12835 6.59852 2.17371 6.90375 2.28128 7.18933C2.38884 7.47491 2.55617 7.73422 2.772 7.94995C2.98783 8.16569 3.24724 8.33287 3.53286 8.44031C3.81849 8.54775 4.12374 8.593 4.42825 8.573C5.28691 8.573 6.14563 8.573 7.0043 8.573C8.2203 8.573 9.43656 8.573 10.6532 8.573C11.68 8.55248 12.6796 8.90449 13.4669 9.5639C14.2543 10.2233 14.7763 11.1455 14.9363 12.16C14.9767 12.3911 14.9967 12.6253 14.9962 12.86C15.0012 14.215 14.9962 15.571 14.9962 16.926C14.9962 16.983 14.9893 17.04 14.9833 17.114H12.8493V16.841C12.8493 15.502 12.8583 14.164 12.8493 12.826C12.8458 12.2927 12.6421 11.7802 12.2785 11.3901C11.9149 11 11.418 10.7608 10.8863 10.72C10.8383 10.72 10.7863 10.72 10.7033 10.72V17.378L4.29226 17.377ZM7.33828 6.42297C6.61006 6.38318 5.91665 6.09837 5.37075 5.61475C4.82486 5.13112 4.45847 4.47709 4.3312 3.75897C4.18936 2.9249 4.38128 2.06853 4.8655 1.37476C5.34972 0.680981 6.0874 0.205468 6.91921 0.0509644C6.97424 0.0374096 7.02834 0.020411 7.0812 0H7.88125C8.24348 0.0928284 8.59868 0.211127 8.94424 0.354004C9.60106 0.681125 10.1248 1.22498 10.4269 1.89368C10.729 2.56238 10.7909 3.31489 10.6022 4.02399C10.4223 4.71589 10.0164 5.32787 9.449 5.7627C8.88155 6.19752 8.18511 6.43029 7.47024 6.42401L7.33828 6.42297Z" fill="white"/>
</svg>
