<svg width="411" height="301" viewBox="0 0 411 301" fill="none" xmlns="http://www.w3.org/2000/svg">
<path opacity="0.75" fill-rule="evenodd" clip-rule="evenodd" d="M164.222 -300.34C233.139 -296.404 295.403 -263.443 346.051 -221.487C392.412 -183.083 411.371 -128.865 434.638 -76.3344C459.729 -19.6865 506.584 37.57 486.593 95.816C466.554 154.2 394.812 182.617 335.404 212.784C282.229 239.788 224.225 248.935 164.222 259.52C87.108 273.123 -2.73454 326.998 -64.271 283.288C-126.524 239.07 -90.1759 147.902 -92.9169 76.8727C-94.8355 27.1528 -86.6688 -18.9793 -77.8308 -68.0976C-66.9499 -128.568 -82.0206 -198.454 -35.312 -243.27C13.4823 -290.086 92.7824 -304.421 164.222 -300.34Z" fill="#1B4670"/>
</svg>
