<svg width="17" height="22" viewBox="0 0 17 22" fill="none" xmlns="http://www.w3.org/2000/svg">
    <path d="M15.545 8.79134H15.1209V6.80607C15.1209 3.13417 12.207 0.0668196 8.56493 0.00134176C8.46542 -0.000447253 8.26657 -0.000447253 8.1671 0.00134176C4.52499 0.0668196 1.61114 3.13417 1.61114 6.80607V8.79134H1.18692C0.533215 8.79134 0 9.46588 0 10.299V20.2563C0 21.0884 0.533215 21.7693 1.18696 21.7693H15.545C16.1987 21.7693 16.732 21.0884 16.732 20.2563V10.299C16.732 9.46593 16.1988 8.79134 15.545 8.79134ZM9.71115 15.2675V18.2762C9.71115 18.6207 9.42272 18.9123 9.07793 18.9123H7.65415C7.30932 18.9123 7.02088 18.6207 7.02088 18.2762V15.2675C6.68647 14.9383 6.49178 14.4832 6.49178 13.9796C6.49178 13.0255 7.22935 12.2056 8.16715 12.1677C8.26653 12.1637 8.4656 12.1637 8.56498 12.1677C9.50278 12.2056 10.2403 13.0255 10.2403 13.9796C10.2403 14.4832 10.0456 14.9383 9.71115 15.2675ZM12.3251 8.79134H8.56493H8.1671H4.40696V6.80607C4.40696 4.61878 6.18452 2.81022 8.366 2.81022C10.5475 2.81022 12.3251 4.61878 12.3251 6.80607V8.79134H12.3251Z" fill="#1B4670"/>
</svg>
