<svg width="19" height="20" viewBox="0 0 19 20" fill="none" xmlns="http://www.w3.org/2000/svg">
    <path d="M17.8749 9.05795L9.32339 0.505604C8.98646 0.168679 8.54503 0 8.10361 0C7.66218 0 7.22032 0.168679 6.88383 0.505604L2.2007 5.18786C1.52685 5.86171 1.52685 6.97526 2.2007 7.64911L2.97688 8.44654H4.76731L3.09613 6.75367C2.97905 6.63616 2.96171 6.48917 2.96171 6.41805C2.96171 6.34694 2.97905 6.20514 3.09613 6.08806L3.71448 5.4888L6.65314 8.44654H9.47212L5.12375 4.07649L7.77882 1.41101C7.8959 1.29393 8.03249 1.27182 8.10361 1.27182C8.17472 1.27182 8.31131 1.28656 8.42839 1.4032L16.9803 9.95424C17.0978 10.0718 17.1156 10.207 17.1156 10.2786C17.1156 10.3497 17.0852 10.4859 16.9677 10.6034L16.4829 11.0765V12.8669L17.8636 11.4988C18.537 10.8237 18.5491 9.7318 17.8749 9.05795Z" fill="#1B4670"/>
    <path d="M13.8625 9.24829H1.76745C0.814777 9.24829 0 10.0158 0 10.9685V15.5432H15.5662V10.9685C15.5662 10.0158 14.8152 9.24829 13.8625 9.24829ZM4.22696 13.9856C3.88916 13.9856 3.58346 13.8512 3.35798 13.6344C3.13249 13.8512 2.82635 13.9856 2.48943 13.9856C1.7965 13.9856 1.23409 13.4241 1.23409 12.7298C1.23409 12.0365 1.79607 11.4745 2.48943 11.4745C2.82679 11.4745 3.13292 11.6085 3.35798 11.8253C3.58346 11.6085 3.88916 11.4745 4.22696 11.4745C4.92032 11.4745 5.48229 12.0365 5.48229 12.7298C5.48229 13.4241 4.92032 13.9856 4.22696 13.9856Z" fill="#1B4670"/>
    <path d="M0 17.5904C0 18.543 0.814344 19.3205 1.76745 19.3205H13.8625C14.8152 19.3205 15.5666 18.543 15.5666 17.5904V17.4889H0V17.5904Z" fill="#1B4670"/>
</svg>
