<svg width="16" height="20" viewBox="0 0 16 20" fill="none" xmlns="http://www.w3.org/2000/svg">
    <path d="M7.87889 9.23796C9.14802 9.23796 10.247 8.78278 11.1449 7.8847C12.0428 6.98678 12.498 5.88811 12.498 4.61883C12.498 3.35 12.0428 2.25118 11.1448 1.35296C10.2467 0.455182 9.14787 0 7.87889 0C6.60962 0 5.51095 0.455182 4.61302 1.35311C3.71509 2.25104 3.25977 3.34985 3.25977 4.61883C3.25977 5.88811 3.71509 6.98692 4.61317 7.88485C5.51124 8.78263 6.61006 9.23796 7.87889 9.23796Z" fill="#1B4670"/>
    <path d="M15.9612 14.7467C15.9353 14.373 15.8829 13.9654 15.8058 13.5349C15.728 13.1012 15.6278 12.6913 15.5078 12.3165C15.3839 11.9293 15.2153 11.5468 15.007 11.1803C14.7907 10.7999 14.5367 10.4686 14.2517 10.196C13.9537 9.91086 13.5887 9.68158 13.1668 9.51435C12.7463 9.34799 12.2803 9.26371 11.7818 9.26371C11.586 9.26371 11.3967 9.34404 11.031 9.58209C10.806 9.72884 10.5428 9.89857 10.249 10.0863C9.99777 10.2464 9.65744 10.3963 9.23708 10.5321C8.82697 10.6648 8.41056 10.7321 7.99956 10.7321C7.58857 10.7321 7.1723 10.6648 6.76175 10.5321C6.34183 10.3965 6.0015 10.2465 5.75057 10.0864C5.45955 9.90047 5.19619 9.73074 4.96779 9.58194C4.60259 9.34389 4.41312 9.26356 4.21735 9.26356C3.71871 9.26356 3.25285 9.34799 2.83249 9.51449C2.41081 9.68144 2.04576 9.91071 1.74743 10.1962C1.46255 10.4689 1.20841 10.8 0.992447 11.1803C0.784242 11.5468 0.615689 11.9291 0.491614 12.3167C0.371783 12.6914 0.271558 13.1012 0.193719 13.5349C0.116612 13.9648 0.0642318 14.3725 0.0383342 14.7471C0.0128756 15.1141 0 15.4949 0 15.8796C0 16.8807 0.318233 17.6911 0.945772 18.2888C1.56556 18.8786 2.38565 19.1778 3.38292 19.1778H12.6171C13.6144 19.1778 14.4341 18.8787 15.0541 18.2888C15.6818 17.6915 16 16.881 16 15.8794C15.9999 15.493 15.9868 15.1119 15.9612 14.7467Z" fill="#1B4670"/>
</svg>
