<svg width="411" height="400" viewBox="0 0 411 400" fill="none" xmlns="http://www.w3.org/2000/svg">
    <g clip-path="url(#clip0)">
        <rect width="511" height="400" rx="30" />
        <path d="M52.71 -117.938C54.643 -121.286 58.9241 -122.433 62.2721 -120.5L599.561 189.704C602.909 191.637 604.057 195.918 602.124 199.266L428.494 500.002C426.273 503.849 420.378 501.557 421.338 497.22V497.22C444.848 391.047 355.555 293.861 247.775 308.314L136.397 323.25V323.25C35.6933 331.15 -62.5904 289.734 -127.268 212.142L-133.146 205.089C-133.375 204.815 -133.408 204.428 -133.229 204.119L52.71 -117.938Z" fill="#0A66C2"/>
        <path d="M-120 -70C-120 -73.866 -116.866 -77 -113 -77H436C439.866 -77 443 -73.866 443 -70V230.068C443 233.99 437.491 234.858 436.285 231.126V231.126C406.994 140.474 297.095 105.709 220.997 163.023L140.082 223.966V223.966C66.0062 273.664 -27.2773 285.204 -111.23 255.057L-119.49 252.091C-119.796 251.981 -120 251.691 -120 251.365V-70Z" fill="#1B4670"/>

    </g>
    <defs>
        <clipPath id="clip0">

        </clipPath>
    </defs>
</svg>