<?xml version="1.0" encoding="utf-8"?>
<svg width="411" height="700" viewBox="0 0 411 700" fill="none" xmlns="http://www.w3.org/2000/svg">
  <g clip-path="url(#clip0)">
    <g clip-path="url(#clip1)">
      <path opacity="0.38" fill-rule="evenodd" clip-rule="evenodd" d="M21.5743 -604.696C75.8919 -679.372 159.028 -729.262 244.2 -760.793C322.162 -789.653 398.658 -778.434 476.31 -773.039C560.048 -767.22 660.205 -785.364 713.245 -728.2C766.41 -670.901 747.531 -573.726 739.586 -489.293C732.474 -413.714 701.192 -343.415 670.133 -270.021C630.214 -175.697 627.758 -43.0723 532.694 -0.420532C436.524 42.7278 357.156 -52.3977 272.894 -91.7943C213.912 -119.372 166.367 -156.077 115.848 -195.317C53.6529 -243.627 -38.1859 -268.559 -56.3777 -347.556C-75.3818 -430.081 -34.7325 -527.284 21.5743 -604.696Z" fill="#1B4670"/>
    </g>
    <g filter="url(#filter0_dd)">
      <path fill-rule="evenodd" clip-rule="evenodd" d="M183.891 852.973C330.739 863.801 457.579 766.836 467.198 636.396C476.816 505.955 365.57 391.434 218.722 380.606C71.8746 369.778 -54.9662 466.743 -64.5845 597.184C-74.2029 727.624 37.0434 842.145 183.891 852.973Z" fill="#E6EEF8"/>
      <path fill-rule="evenodd" clip-rule="evenodd" d="M183.891 852.973C330.739 863.801 457.579 766.836 467.198 636.396C476.816 505.955 365.57 391.434 218.722 380.606C71.8746 369.778 -54.9662 466.743 -64.5845 597.184C-74.2029 727.624 37.0434 842.145 183.891 852.973Z" fill="url(#paint0_linear)" fill-opacity="0.4" style="mix-blend-mode:soft-light"/>
      <path d="M466.2 636.322C456.631 766.104 330.376 862.772 183.965 851.976C37.5534 841.18 -73.157 727.039 -63.5872 597.257C-54.0174 467.475 72.2374 370.807 218.649 381.603C365.06 392.399 475.77 506.54 466.2 636.322Z" stroke="white" stroke-opacity="0.4" stroke-width="2"/>
    </g>
    <g filter="url(#filter1_dd)">
      <path fill-rule="evenodd" clip-rule="evenodd" d="M205.5 963C342.19 963 453 859.802 453 732.5C453 605.198 342.19 502 205.5 502C68.8095 502 -42 605.198 -42 732.5C-42 859.802 68.8095 963 205.5 963Z" fill="#E6EEF8"/>
      <path fill-rule="evenodd" clip-rule="evenodd" d="M205.5 963C342.19 963 453 859.802 453 732.5C453 605.198 342.19 502 205.5 502C68.8095 502 -42 605.198 -42 732.5C-42 859.802 68.8095 963 205.5 963Z" fill="url(#paint1_linear)" fill-opacity="0.4" style="mix-blend-mode:soft-light"/>
      <path d="M452 732.5C452 859.184 341.706 962 205.5 962C69.2936 962 -41 859.184 -41 732.5C-41 605.816 69.2936 503 205.5 503C341.706 503 452 605.816 452 732.5Z" stroke="white" stroke-opacity="0.4" stroke-width="2"/>
    </g>
    <g filter="url(#filter2_dd)">
      <path fill-rule="evenodd" clip-rule="evenodd" d="M212.5 1041C349.19 1041 460 937.802 460 810.5C460 683.198 349.19 580 212.5 580C75.8095 580 -35 683.198 -35 810.5C-35 937.802 75.8095 1041 212.5 1041Z" fill="#E6EEF8"/>
      <path fill-rule="evenodd" clip-rule="evenodd" d="M212.5 1041C349.19 1041 460 937.802 460 810.5C460 683.198 349.19 580 212.5 580C75.8095 580 -35 683.198 -35 810.5C-35 937.802 75.8095 1041 212.5 1041Z" fill="url(#paint2_linear)" fill-opacity="0.4" style="mix-blend-mode:soft-light"/>
      <path d="M459 810.5C459 937.184 348.706 1040 212.5 1040C76.2936 1040 -34 937.184 -34 810.5C-34 683.816 76.2936 581 212.5 581C348.706 581 459 683.816 459 810.5Z" stroke="white" stroke-opacity="0.4" stroke-width="2"/>
    </g>
  </g>

</svg>