<svg width="19" height="19" viewBox="0 0 19 19" fill="none" xmlns="http://www.w3.org/2000/svg">
    <path d="M6.77976 3.03948L0.990802 0.000274658C0.485419 0.189492 0 0.809615 0 1.52544V14.5023C0 15.0701 0.278315 15.5822 0.745848 15.8939L5.19889 18.7191C6.26358 19.4429 7.79283 18.6924 7.79283 17.3275V4.58691C7.79283 3.93005 7.42541 3.36229 6.77976 3.03948ZM5.56631 10.6134C5.56631 10.921 5.31734 11.17 5.00967 11.17C4.70201 11.17 4.45304 10.921 4.45304 10.6134V8.38684C4.45304 8.07917 4.70201 7.83021 5.00967 7.83021C5.31734 7.83021 5.56631 8.07917 5.56631 8.38684V10.6134Z" fill="#1B4670"/>
    <path d="M18.7796 9.05646L14.8662 6.32429C14.5155 5.97362 13.9159 6.22195 13.9159 6.71783V8.38665H9.46288C9.15547 8.38665 8.90625 8.63579 8.90625 8.94328V10.0565C8.90625 10.3639 9.15547 10.6132 9.46288 10.6132H13.9159V12.2819C13.9159 12.7778 14.5154 13.0262 14.8661 12.6755L18.7796 9.94325C19.0731 9.72052 19.0731 9.27919 18.7796 9.05646Z" fill="#1B4670"/>
    <path d="M8.90625 11.7263V16.773H10.5761C11.497 16.773 12.246 16.024 12.246 15.1031V11.7263C10.2939 11.7263 10.862 11.7263 8.90625 11.7263Z" fill="#1B4670"/>
    <path d="M10.576 0H3.38574L7.27551 2.04224L7.27763 2.04332C7.27778 2.04339 7.27781 2.0435 7.27781 2.0435L7.29718 2.05363C8.29738 2.55323 8.90618 3.50395 8.90618 4.58678V7.27331C10.8619 7.27331 10.2939 7.27331 12.246 7.27331V1.66989C12.2459 0.749076 11.4969 0 10.576 0Z" fill="#1B4670"/>
</svg>
