<svg width="50" height="44" viewBox="0 0 50 44" fill="none" xmlns="http://www.w3.org/2000/svg">
<path fill-rule="evenodd" clip-rule="evenodd" d="M29.6011 20.5841C29.7829 20.5798 29.9632 20.6166 30.1263 20.6915C30.2894 20.7663 30.4304 20.8769 30.5371 21.0137C31.0888 21.7006 31.9705 22.1507 32.983 22.1507C33.9955 22.1507 34.8783 21.7011 35.4367 21.011C35.5242 20.8998 35.6347 20.8059 35.7616 20.7347C35.8886 20.6635 36.0295 20.6164 36.1762 20.5962C36.3229 20.5759 36.4724 20.583 36.6162 20.6168C36.7599 20.6507 36.895 20.7107 37.0136 20.7934C37.1321 20.8761 37.2318 20.9799 37.3069 21.0987C37.3819 21.2174 37.4308 21.3489 37.4507 21.4853C37.4707 21.6218 37.4612 21.7606 37.4229 21.8936C37.3846 22.0266 37.3182 22.1513 37.2276 22.2603C36.2627 23.4529 34.7148 24.2307 32.983 24.2307C31.2512 24.2307 29.702 23.4532 28.7415 22.2574C28.6157 22.1052 28.5376 21.9237 28.5159 21.7328C28.4943 21.542 28.5299 21.3493 28.6189 21.1761C28.7079 21.0029 28.8467 20.8559 29.02 20.7514C29.1934 20.647 29.3945 20.5891 29.6011 20.5841Z" fill="#204A73"/>
<path fill-rule="evenodd" clip-rule="evenodd" d="M32.9888 0.0543823C40.6278 0.0543823 46.8313 5.83099 46.8313 12.9244C46.8313 16.0168 45.6615 18.8604 43.6987 21.0819C43.0263 24.0636 40.9184 26.5714 38.0987 27.9718C44.0466 30.0957 48.5184 35.8299 49.6313 42.7594C49.6549 42.9067 49.6409 43.055 49.5963 43.1981C49.5517 43.3412 49.4735 43.4753 49.3688 43.5881C49.2641 43.7009 49.1296 43.786 48.9838 43.8481C48.838 43.9102 48.6717 43.9456 48.5113 43.9456H17.4487C17.2884 43.9456 17.1396 43.9103 16.9938 43.8481C16.8479 43.786 16.7134 43.7009 16.6087 43.5881C16.5041 43.4753 16.4259 43.3412 16.3813 43.1981C16.3367 43.055 16.3227 42.9067 16.3463 42.7594C16.6264 41.0152 17.1241 39.3399 17.7988 37.7869H1.47126C1.31078 37.7869 1.16217 37.7515 1.01624 37.6894C0.870373 37.6273 0.735984 37.5423 0.631272 37.4294C0.526561 37.3165 0.448335 37.1825 0.403819 37.0394C0.359304 36.8962 0.34508 36.7479 0.368763 36.6006C1.3068 30.7867 5.00351 25.9416 9.95872 24.0231C7.68351 22.7895 5.99071 20.6961 5.42627 18.2381C3.74977 16.329 2.74874 13.8895 2.74874 11.2344C2.74874 5.11791 8.11439 0.135632 14.7013 0.135632C18.1294 0.135632 21.2358 1.4752 23.4163 3.62938C25.9059 1.41449 29.2784 0.0543823 32.9888 0.0543823ZM14.4213 10.4869C11.9802 10.4921 9.6882 10.9526 7.47381 11.8031V16.4181C7.46653 16.8136 7.51765 17.219 7.57874 17.6043C8.18321 20.7417 11.1536 23.1456 14.7013 23.1456C17.4792 23.1456 19.8971 21.6604 21.1063 19.5219C19.8584 17.5892 19.1288 15.3364 19.1288 12.9244C19.1288 12.2925 19.191 11.6633 19.2863 11.0556C17.6 10.6626 15.9778 10.4835 14.4213 10.4869ZM32.7263 11.8519C29.7602 11.8503 26.9742 12.431 24.2913 13.4769V19.0181C24.2868 19.2285 24.2973 19.43 24.3087 19.6356C24.6513 23.7949 28.4254 27.0943 32.9888 27.0943C37.6213 27.0943 41.4263 23.6881 41.6687 19.4406C41.6794 19.2952 41.6828 19.1472 41.6863 19.0181V13.4931C38.5132 12.3671 35.5362 11.8532 32.7263 11.8519Z" fill="#204A73"/>
</svg>
