<svg width="56" height="65" viewBox="0 0 56 65" fill="none" xmlns="http://www.w3.org/2000/svg">
    <path fill-rule="evenodd" clip-rule="evenodd" d="M32.6013 24.5841C32.7832 24.5798 32.9634 24.6166 33.1265 24.6915C33.2896 24.7663 33.4306 24.8769 33.5373 25.0137C34.089 25.7006 34.9707 26.1507 35.9833 26.1507C36.9958 26.1507 37.8785 25.7011 38.4369 25.011C38.5245 24.8998 38.6349 24.8059 38.7619 24.7347C38.8888 24.6635 39.0297 24.6164 39.1764 24.5962C39.3231 24.5759 39.4727 24.583 39.6164 24.6168C39.7602 24.6507 39.8952 24.7107 40.0138 24.7934C40.1324 24.8761 40.2321 24.9799 40.3071 25.0987C40.3822 25.2174 40.4311 25.3489 40.451 25.4853C40.4709 25.6218 40.4614 25.7606 40.4231 25.8936C40.3848 26.0266 40.3185 26.1513 40.2279 26.2603C39.2629 27.4529 37.715 28.2307 35.9833 28.2307C34.2514 28.2307 32.7023 27.4532 31.7418 26.2574C31.6159 26.1052 31.5378 25.9237 31.5162 25.7328C31.4945 25.542 31.5302 25.3493 31.6191 25.1761C31.7081 25.0029 31.8469 24.8559 32.0203 24.7514C32.1936 24.647 32.3947 24.5891 32.6013 24.5841Z" fill="#204A73"/>
    <path fill-rule="evenodd" clip-rule="evenodd" d="M35.9888 4.05438C43.6278 4.05438 49.8313 9.83099 49.8313 16.9244C49.8313 20.0168 48.6615 22.8604 46.6987 25.0818C46.0263 28.0636 43.9184 30.5714 41.0987 31.9718C47.0466 34.0957 51.5184 39.8299 52.6313 46.7594C52.6549 46.9067 52.6409 47.055 52.5963 47.1981C52.5517 47.3412 52.4735 47.4753 52.3688 47.5881C52.2641 47.7009 52.1296 47.786 51.9838 47.8481C51.838 47.9101 51.6717 47.9456 51.5113 47.9456H20.4487C20.2884 47.9456 20.1396 47.9103 19.9938 47.8481C19.8479 47.786 19.7134 47.7009 19.6087 47.5881C19.5041 47.4753 19.4259 47.3412 19.3813 47.1981C19.3367 47.055 19.3227 46.9067 19.3463 46.7594C19.6264 45.0152 20.1241 43.3399 20.7988 41.7869H4.47126C4.31078 41.7869 4.16217 41.7515 4.01624 41.6894C3.87037 41.6273 3.73598 41.5423 3.63127 41.4294C3.52656 41.3165 3.44834 41.1825 3.40382 41.0394C3.3593 40.8962 3.34508 40.7479 3.36876 40.6006C4.3068 34.7867 8.00351 29.9416 12.9587 28.0231C10.6835 26.7895 8.99071 24.6961 8.42627 22.2381C6.74977 20.329 5.74874 17.8895 5.74874 15.2344C5.74874 9.11791 11.1144 4.13563 17.7013 4.13563C21.1294 4.13563 24.2358 5.47519 26.4163 7.62937C28.9059 5.41449 32.2784 4.05438 35.9888 4.05438ZM17.4213 14.4869C14.9802 14.4921 12.6882 14.9526 10.4738 15.8031V20.4181C10.4665 20.8136 10.5176 21.219 10.5787 21.6043C11.1832 24.7417 14.1536 27.1456 17.7013 27.1456C20.4792 27.1456 22.8971 25.6604 24.1063 23.5218C22.8584 21.5892 22.1288 19.3364 22.1288 16.9244C22.1288 16.2925 22.191 15.6633 22.2863 15.0556C20.6 14.6626 18.9778 14.4835 17.4213 14.4869ZM35.7263 15.8519C32.7602 15.8503 29.9742 16.431 27.2913 17.4769V23.0181C27.2868 23.2285 27.2973 23.43 27.3087 23.6356C27.6513 27.7949 31.4254 31.0943 35.9888 31.0943C40.6213 31.0943 44.4263 27.6881 44.6687 23.4406C44.6794 23.2952 44.6828 23.1472 44.6863 23.0181V17.4931C41.5132 16.3671 38.5362 15.8532 35.7263 15.8519Z" fill="#204A73"/>
</svg>
