<svg width="21" height="15" viewBox="0 0 21 15" fill="none" xmlns="http://www.w3.org/2000/svg">
    <path d="M20.8243 4.58665C20.7219 4.4617 20.569 4.38876 20.4087 4.38876H18.3703C17.8673 3.06201 17.2119 1.76208 16.467 1.27138C13.8902 -0.423794 7.05536 -0.423794 4.47855 1.27138C3.73312 1.76261 3.08047 3.06416 2.57476 4.38876H0.53637C0.374414 4.38876 0.222111 4.4617 0.120755 4.58665C0.0188618 4.71107 -0.0218953 4.87571 0.0113539 5.03391L0.313278 6.49687C0.364761 6.74624 0.584635 6.92429 0.838294 6.92429H1.44214C0.859209 7.59678 0.576591 8.44356 0.572837 9.29088C0.569083 10.3377 0.966465 11.2837 1.69312 11.953C1.70117 11.9599 1.70921 11.9648 1.71672 11.9717V14.0187C1.71672 14.4622 2.0771 14.8231 2.52113 14.8231H4.40133C4.84536 14.8231 5.20574 14.4622 5.20574 14.0187V13.1961H15.7388V14.0187C15.7388 14.4622 16.0992 14.8231 16.5432 14.8231H18.4234C18.8664 14.8231 19.2278 14.4622 19.2278 14.0187V12.012C19.999 11.3057 20.3674 10.3339 20.3722 9.36381C20.3754 8.48754 20.0799 7.60965 19.4627 6.92321H20.1068C20.3615 6.92321 20.5814 6.74517 20.6318 6.49527L20.9342 5.03283C20.9653 4.87571 20.9262 4.71214 20.8243 4.58665ZM5.3618 2.61476C7.41574 1.2628 13.5288 1.2628 15.5816 2.61476C15.9806 2.87646 16.4939 3.93454 16.9642 5.23019H3.98035C4.44959 3.93507 4.96281 2.87753 5.3618 2.61476ZM2.95606 9.49252C2.95606 8.61839 3.66502 7.9105 4.53861 7.9105C5.41328 7.9105 6.12117 8.61839 6.12117 9.49252C6.12117 10.3667 5.41328 11.0751 4.53861 11.0751C3.66502 11.0751 2.95606 10.3667 2.95606 9.49252ZM16.4268 11.0751C15.5532 11.0751 14.8443 10.3667 14.8443 9.49252C14.8443 8.61839 15.5532 7.9105 16.4268 7.9105C17.3015 7.9105 18.0094 8.61839 18.0094 9.49252C18.0094 10.3667 17.3004 11.0751 16.4268 11.0751Z" fill="#1B4670"/>
</svg>
