<svg width="36" height="45" viewBox="0 0 36 45" fill="none" xmlns="http://www.w3.org/2000/svg">
    <path d="M35.8069 30.3727L35.8069 40.3843C35.8069 40.5301 35.7686 40.6731 35.6963 40.7971C35.6241 40.9212 35.5207 41.0215 35.3977 41.0867C35.1497 41.2186 29.1904 44.3104 18.0395 44.3104C6.8886 44.3104 0.929267 41.2186 0.681264 41.0867C0.558298 41.0215 0.454887 40.9212 0.382618 40.7971C0.31035 40.6731 0.27208 40.5301 0.272096 40.3843L0.272096 30.3727C0.271464 28.9955 0.650285 27.6482 1.36198 26.4963C2.07367 25.3445 3.08721 24.4383 4.27797 23.8893L7.82738 22.2542L17.5023 33.0727C17.5715 33.15 17.6548 33.2115 17.7472 33.2536C17.8395 33.2956 17.939 33.3173 18.0395 33.3173C18.14 33.3173 18.2394 33.2956 18.3318 33.2536C18.4241 33.2115 18.5074 33.15 18.5766 33.0727L28.2522 22.2535L31.801 23.8893C32.9917 24.4383 34.0053 25.3445 34.717 26.4963C35.4287 27.6482 35.8075 28.9955 35.8069 30.3727ZM26.8068 21.5873L24.8598 20.69C24.0083 21.6967 22.9667 22.5022 21.8027 23.0543C20.6386 23.6064 19.3782 23.8927 18.1031 23.8946H18.0951C16.8116 23.8929 15.543 23.6031 14.3725 23.0444C13.2021 22.4856 12.1563 21.6706 11.304 20.6527L9.27305 21.5883L18.0395 31.3911L26.8068 21.5873ZM10.3248 14.508C10.4647 16.6051 11.3399 18.5707 12.7782 20.0175C14.2164 21.4642 16.1133 22.2871 18.0951 22.3242H18.1031C20.0849 22.2871 21.9818 21.4642 23.4201 20.0175C24.8583 18.5707 25.7336 16.6052 25.8734 14.508L26.2328 10.4976C24.0923 10.4325 22.0164 9.70541 20.2604 8.40561V9.76059C20.2604 9.96885 20.1824 10.1686 20.0436 10.3158C19.9047 10.4631 19.7164 10.5458 19.5201 10.5458C16.1829 10.5296 12.9074 9.59019 10.0171 7.82046C9.8968 8.59895 9.86974 9.39045 9.93659 10.1761L10.3248 14.508ZM18.7798 6.6197C18.7798 6.4549 18.8287 6.29427 18.9195 6.16057C19.0104 6.02688 19.1386 5.92689 19.286 5.87477C19.4334 5.82266 19.5925 5.82105 19.7408 5.87019C19.8891 5.91933 20.0191 6.01672 20.1123 6.14857C20.1892 6.2541 22.0098 8.68806 26.286 8.93509C26.2193 6.77875 25.4368 4.71667 24.0763 3.11274C23.3438 2.24036 22.4456 1.54215 21.4407 1.06393C20.4358 0.585707 19.3469 0.33829 18.2455 0.337914L17.9527 0.337914C16.8513 0.338377 15.7624 0.585783 14.7574 1.06391C13.7525 1.54203 12.8542 2.24008 12.1214 3.11226C11.3497 4.01824 10.7594 5.08082 10.386 6.23573C12.9247 7.87484 15.8109 8.81146 18.7798 8.95967V6.6197Z" fill="#1B4670"/>
</svg>
