<svg width="20" height="20" viewBox="0 0 20 20" fill="none" xmlns="http://www.w3.org/2000/svg">
    <path fill-rule="evenodd" clip-rule="evenodd" d="M19.9811 3.95145H20L17.1393 0H2.54469L0 3.95145H0.0197521L0.0065066 3.96801C0.0065066 5.39247 0.929819 6.54722 2.06878 6.54722C3.0106 6.54722 3.80496 5.75762 4.05174 4.67886C4.29851 5.75762 5.09288 6.54722 6.0347 6.54722C6.97652 6.54722 7.77088 5.75762 8.01765 4.67886C8.26443 5.75762 9.05879 6.54722 10.0006 6.54722C10.9424 6.54722 11.7368 5.75762 11.9836 4.67886C12.2303 5.75762 13.0247 6.54722 13.9665 6.54722C14.9083 6.54722 15.7027 5.75762 15.9495 4.67886C16.1963 5.75762 16.9906 6.54722 17.9324 6.54722C19.0714 6.54722 19.9947 5.39247 19.9947 3.96801C19.9947 3.96801 19.99 3.96231 19.9811 3.95145ZM2.38605 6.94402H4.13106V19.2449H2.38605V6.94402ZM15.8702 6.94402H17.6152V19.2449H15.8702V6.94402ZM4.13106 12.6976H15.8702V19.2449H4.13106V12.6976Z" fill="#1B4670"/>
</svg>
